<svg xmlns="http://www.w3.org/2000/svg" viewBox="0 0 52.2 11"><defs><style>.cls-1{fill:#fff;}</style></defs><title>logo white</title><g id="Capa_2" data-name="Capa 2"><g id="Layer_2" data-name="Layer 2"><path class="cls-1" d="M8.1,10.85a.37.37,0,0,1-.31.15A.41.41,0,0,1,7.6,11l-.09-.06L4.18,8h-.1a.64.64,0,1,1,.63-.64.47.47,0,0,1,0,.17L7,9.56H7L6.5,8.12l-.35-1-2-5.62c-.41,1.14-.83,2.3-1.24,3.41-.27.74-.54,1.47-.8,2.2l-.36,1c-.18.5-.39,1-.59,1.51L.7,10.75A.33.33,0,0,1,.37,11a.37.37,0,0,1-.31-.15.27.27,0,0,1,0-.29C.55,9.11,1.11,7.63,1.64,6.21,2.36,4.29,3.1,2.31,3.81.37A.38.38,0,0,1,4.16.12a.34.34,0,0,1,.33.25L5.85,4.18c.75,2.09,1.52,4.26,2.28,6.39A.28.28,0,0,1,8.1,10.85Z"/><path class="cls-1" d="M15.74,7.78A2.73,2.73,0,0,1,15,10.19a3.87,3.87,0,0,1-2.41.8h-.23A3.58,3.58,0,0,1,8.48,7.66a.31.31,0,0,1,.08-.25.4.4,0,0,1,.26-.1.35.35,0,0,1,.37.34,2.79,2.79,0,0,0,2.65,2.62,4.52,4.52,0,0,0,.51,0,2.74,2.74,0,0,0,2.47-1A1.92,1.92,0,0,0,15,7.73a1.52,1.52,0,0,0-.81-.91,6.41,6.41,0,0,0-2-.42l-.61-.07a3.77,3.77,0,0,1-2.23-.89,3,3,0,0,1-.76-1.8,3.07,3.07,0,0,1,.84-2.31A3.65,3.65,0,0,1,12.12.16a3.55,3.55,0,0,1,3.65,3.33.33.33,0,0,1-.35.35.35.35,0,0,1-.37-.34,2.8,2.8,0,0,0-3-2.6A2.65,2.65,0,0,0,9.42,2.78a2.23,2.23,0,0,0,.19,1.79,3,3,0,0,0,2.44,1.11l.14,0c1.39.16,3.29.37,3.55,2.08Z"/><path class="cls-1" d="M23.87.52a.34.34,0,0,1-.34.36H20.27v9.76a.34.34,0,0,1-.35.35.34.34,0,0,1-.35-.35V.88H16.18a.34.34,0,0,1-.35-.36.34.34,0,0,1,.35-.36h7.35A.34.34,0,0,1,23.87.52Z"/><path class="cls-1" d="M32,4.17s0,0,0,0v0a.06.06,0,0,0,0,0v0h0A5.34,5.34,0,0,0,28.91.26,3.87,3.87,0,0,0,27.53,0,4.66,4.66,0,0,0,23.6,2.46,6.38,6.38,0,0,0,23.88,9a4.53,4.53,0,0,0,3.66,2,4,4,0,0,0,1.63-.35,4.91,4.91,0,0,0,2.52-2.73A6.78,6.78,0,0,0,32,4.17Zm-4.49,6.1a3.72,3.72,0,0,1-2.78-1.33A5.53,5.53,0,0,1,24,3.39,4.06,4.06,0,0,1,27.51.72a3,3,0,0,1,.78.1,4.51,4.51,0,0,1,3,3.48,5.36,5.36,0,0,1-1.88,5.37A3.42,3.42,0,0,1,27.54,10.27Z"/><path class="cls-1" d="M40.2,7.77c0,.32,0,.64,0,1s0,.64,0,.95v1a.36.36,0,0,1-.72,0V9.79c0-.54,0-1.1,0-1.65a2.22,2.22,0,0,0-.33-1.37,2.76,2.76,0,0,0-2.12-1,.64.64,0,0,1-.45.19.64.64,0,0,1,0-1.28.61.61,0,0,1,.56.35A2.74,2.74,0,0,0,39,4.24a2,2,0,0,0,.45-1.56A2.1,2.1,0,0,0,37.69.85a3.54,3.54,0,0,0-.7,0H34C34,2,34,3.14,34,4.31V6.68c0,1.32,0,2.66,0,4a.36.36,0,0,1-.72,0c0-1.71,0-3.43,0-5.11s0-3.38,0-5.08a.36.36,0,0,1,.35-.36h3a3.61,3.61,0,0,1,2.93,1,2.92,2.92,0,0,1,.19,3.43,2.61,2.61,0,0,1-1.16.94A2.57,2.57,0,0,1,40.2,7.77Z"/><path class="cls-1" d="M42.76,2.2v8.45a.34.34,0,0,1-.35.35.34.34,0,0,1-.35-.35V2.2a.33.33,0,0,1,.35-.34A.33.33,0,0,1,42.76,2.2Z"/><path class="cls-1" d="M52.15,10.85a.37.37,0,0,1-.31.15.37.37,0,0,1-.35-.24l-.39-1.1-.55-1.54-.35-1c-.71-2-1.36-3.8-2-5.62-.41,1.13-.83,2.27-1.23,3.38-.27.75-.55,1.49-.82,2.23l-.35,1c-.18.49-.39,1-.59,1.5l-.45,1.13a.34.34,0,0,1-.34.24.4.4,0,0,1-.31-.15.29.29,0,0,1,0-.29c.53-1.44,1.08-2.92,1.62-4.34.71-1.92,1.46-3.9,2.16-5.84a.39.39,0,0,1,.36-.25.34.34,0,0,1,.33.25l1.44,4c.72,2,1.47,4.1,2.2,6.16A.31.31,0,0,1,52.15,10.85Z"/><path class="cls-1" d="M43.05.64A.64.64,0,1,1,42.41,0,.64.64,0,0,1,43.05.64Z"/><path class="cls-1" d="M48.76,7.34a.64.64,0,1,1-.64-.64A.64.64,0,0,1,48.76,7.34Z"/></g></g></svg>