<svg xmlns="http://www.w3.org/2000/svg" viewBox="0 0 19.24 22.07"><defs><style>.cls-1{fill:#00b4f2;fill-rule:evenodd;}</style></defs><title>TK</title><g id="Capa_2" data-name="Capa 2"><g id="Layer_2" data-name="Layer 2"><path class="cls-1" d="M19.24,5.29V9.07A9,9,0,0,1,14,7.38v7.71a7,7,0,1,1-7-7,7.46,7.46,0,0,1,1,.06V12a3.08,3.08,0,0,0-1-.15,3.2,3.2,0,0,0-1.44,6.05A3.35,3.35,0,0,0,7,18.28a3.2,3.2,0,0,0,3.2-3.19V0H14V.49L14,.92a5.29,5.29,0,0,0,2.41,3.57A5.32,5.32,0,0,0,19.24,5.29Z"/></g></g></svg>